<?xml version="1.0" encoding="UTF-8" standalone="no"?>
<!DOCTYPE svg PUBLIC "-//W3C//DTD SVG 1.1//EN" "http://www.w3.org/Graphics/SVG/1.1/DTD/svg11.dtd">
<svg version="1.1" xmlns="http://www.w3.org/2000/svg" xmlns:xlink="http://www.w3.org/1999/xlink" preserveAspectRatio="xMidYMid meet" viewBox="0 0 640 30.94" width="640" height="30.94"><defs><path d="M0 30.94L0 0L0.4 0.13L7.05 2.07L14.15 3.96L21.7 5.8L29.67 7.6L38.06 9.34L46.87 11.03L56.06 12.66L65.64 14.24L75.6 15.75L85.91 17.21L96.57 18.61L107.57 19.94L118.9 21.2L130.54 22.39L142.48 23.52L154.72 24.57L167.23 25.55L180.01 26.46L193.05 27.28L206.33 28.03L219.85 28.7L233.58 29.28L247.53 29.78L261.67 30.19L276 30.51L290.51 30.75L305.18 30.89L320 30.94L334.82 30.89L349.49 30.75L364 30.51L378.33 30.19L392.47 29.78L406.42 29.28L420.15 28.7L433.67 28.03L446.95 27.28L459.99 26.46L472.77 25.55L485.28 24.57L497.52 23.52L509.46 22.39L521.1 21.2L532.43 19.94L543.43 18.61L554.09 17.21L564.4 15.75L574.36 14.24L583.94 12.66L593.13 11.03L601.94 9.34L610.33 7.6L618.3 5.8L625.85 3.96L632.95 2.07L639.6 0.13L640 0L640 30.94L0 30.94Z" id="d4KZMjNn7"></path></defs><g><g><g><use xlink:href="#d4KZMjNn7" opacity="1" fill="#ffffff" fill-opacity="1"></use></g></g></g></svg>