<?xml version="1.0" encoding="utf-8"?>
<!-- Generator: Adobe Illustrator 21.0.0, SVG Export Plug-In . SVG Version: 6.00 Build 0)  -->
<svg version="1.1" id="Layer_1" xmlns="http://www.w3.org/2000/svg" xmlns:xlink="http://www.w3.org/1999/xlink" x="0px" y="0px"
	 viewBox="0 0 468.1 162.8" style="enable-background:new 0 0 468.1 162.8;" xml:space="preserve">
<style type="text/css">
	.st0{fill:none;stroke:#3BB375;stroke-width:3.896;stroke-miterlimit:10;}
	.st1{fill:#3BB375;}
</style>
<g>
	<path class="st0" d="M133.9,30.6c0,33.9,0,67.7,0,101.7c-0.5,13.4-3.1,20.2-17.6,22h-0.2L9.8,154.3L9.7,8.4h3.5
		c34.2,0,68.3,0,102.5,0h0.2C129.3,9.1,135.1,17.4,133.9,30.6z"/>
	<path class="st1" d="M20.2,131h7.9c1.6,0,2.8,0.2,3.8,0.6c1,0.4,1.8,1,2.3,1.7c0.6,0.7,1.1,1.6,1.4,2.5c0.3,1,0.4,1.9,0.4,3.1
		c0,1.7-0.2,3-0.6,3.9c-0.4,1-1,1.8-1.8,2.3c-0.8,0.6-1.6,1.1-2.4,1.3c-1.2,0.3-2.2,0.4-3.1,0.4h-7.9V131L20.2,131z M25.6,134.6v8.7
		h1.3c1.1,0,1.9-0.1,2.3-0.4c0.5-0.2,0.9-0.6,1.1-1.2c0.3-0.6,0.4-1.5,0.4-2.7c0-1.7-0.3-2.8-0.9-3.4c-0.6-0.6-1.6-1-2.9-1H25.6
		L25.6,134.6z M38.9,146.8V131h8.9c1.7,0,2.9,0.1,3.8,0.4c0.9,0.3,1.6,0.8,2.1,1.5c0.5,0.7,0.8,1.6,0.8,2.5c0,0.9-0.2,1.7-0.6,2.2
		c-0.4,0.7-1,1.2-1.7,1.6c-0.5,0.3-1.1,0.5-1.9,0.6c0.7,0.2,1.1,0.4,1.4,0.6c0.2,0.1,0.5,0.4,0.9,0.9c0.4,0.4,0.6,0.8,0.8,1l2.5,4.6
		h-6l-2.8-4.9c-0.4-0.6-0.7-1.1-1-1.3c-0.4-0.2-0.8-0.4-1.3-0.4h-0.5v6.4h-5.5V146.8z M44.3,137.4h2.2c0.2,0,0.7-0.1,1.4-0.2
		c0.4-0.1,0.7-0.2,0.9-0.5c0.2-0.3,0.3-0.6,0.3-0.9c0-0.5-0.2-0.9-0.5-1.2c-0.4-0.3-1-0.4-1.9-0.4h-2.3V137.4L44.3,137.4z
		 M57.2,142.5h5.1v4.4h-5.1V142.5L57.2,142.5z M73.6,146.8V131h8.9c1.7,0,2.9,0.1,3.8,0.4c0.9,0.3,1.6,0.8,2.1,1.5
		c0.5,0.7,0.8,1.6,0.8,2.5c0,0.9-0.2,1.7-0.6,2.2c-0.4,0.7-1,1.2-1.7,1.6c-0.5,0.3-1.1,0.5-1.9,0.6c0.6,0.2,1.1,0.4,1.4,0.6
		c0.2,0.1,0.5,0.4,0.9,0.9c0.4,0.4,0.6,0.8,0.8,1l2.5,4.6h-6l-2.8-4.9c-0.4-0.6-0.7-1.1-1-1.3c-0.4-0.2-0.8-0.4-1.3-0.4H79v6.4h-5.5
		V146.8z M78.9,137.4h2.2c0.2,0,0.7-0.1,1.4-0.2c0.4-0.1,0.7-0.2,0.9-0.5c0.2-0.3,0.3-0.6,0.3-0.9c0-0.5-0.2-0.9-0.5-1.2
		c-0.4-0.3-1-0.4-1.9-0.4h-2.3L78.9,137.4L78.9,137.4z M102.7,144.2l0.9,2.6h5.6l-6.4-15.9H97l-6.4,15.9H96l0.9-2.6H102.7
		L102.7,144.2z M101.6,140.8h-3.8l1.9-5.7L101.6,140.8L101.6,140.8z M118,131h5.4v8.6c0,1.9-0.2,3.2-0.5,4.1c-0.4,1-1.1,1.8-2.1,2.4
		c-1.1,0.7-2.4,1-4,1c-1.8,0-3.1-0.2-4-0.7c-1-0.4-1.7-1.1-2.2-1.9c-0.5-0.9-0.8-1.9-0.9-3.1l5.1-0.7c0,0.7,0.1,1.3,0.2,1.6
		s0.3,0.6,0.6,0.8c0.2,0.1,0.5,0.2,0.9,0.2c0.6,0,1.1-0.2,1.3-0.6c0.3-0.4,0.4-1.1,0.4-2V131L118,131z M36.7,41.5
		c-5.6-7.9-11.4-15.8-17-23.7C43.9,17.9,68,18,92.3,18.2c38.2,8,41.9,58,6.4,68.6c8.9,11.4,16.3,22.7,25.1,34.1
		c-9.4,0.1-17.5,0.2-27.1,0.3c-13.1-17-26.4-34.2-39.5-51.2c10.2-0.2,20.6-0.4,30.8-0.6c14.1-4.5,11.3-23.9-0.3-26.7
		C70.8,42.2,53.7,41.9,36.7,41.5L36.7,41.5z M46.9,76l-27.3,45.2h59.9L46.9,76z"/>
	<path class="st1" d="M205.3,47.5c0,21-10.3,31.4-30.8,31.4h-24.6V16h26.8c9.5,0,16.8,2.9,21.7,8.6C203,30.1,205.3,37.8,205.3,47.5
		L205.3,47.5z M189.1,47.5c0-5.8-1-10.1-2.9-13c-2.3-3.5-6.1-5.2-11.5-5.2h-8.7v36.5h8.7c5.4,0,9.3-1.7,11.5-5.2
		C188.1,57.6,189.1,53.3,189.1,47.5L189.1,47.5z M244.1,46.4c-1.3-0.2-2.5-0.3-3.7-0.3c-5.2,0-8.4,1.7-9.9,5.2
		c-0.8,1.8-1.2,5.8-1.2,12V79h-15V32.4h14.6v8.2c3.1-6.1,8.1-9.2,15.2-9.3V46.4L244.1,46.4z M258,79V63.9h-15.7V79H258L258,79z
		 M348.9,79h-16.8c-0.6-1.7-1-5.1-1.2-9.9c-0.2-4.5-0.6-7.7-1.5-9.4c-1.3-2.8-3.9-4.2-7.8-4.2h-10.8V79h-15.9V16h29.9
		c7.2,0,12.6,1.1,16.2,3.3c4.7,2.8,7,7.5,7,14.1c0,7-3.3,12.1-10,15.5c3.4,1.3,5.7,3.6,6.8,6.7c0.8,2.2,1.2,5.3,1.2,9.4l0,0
		c0,4,0.1,6.4,0.2,7.2c0.3,2.3,1.1,3.8,2.4,4.4V79H348.9z M332.2,35.4c0-4.5-3.1-6.8-9.1-6.8h-12.4V43h12
		C329,43,332.2,40.5,332.2,35.4L332.2,35.4z M414.9,79h-17.2l-3.8-11.6h-21L369.4,79h-16.7L375.3,16h17.5L414.9,79L414.9,79z
		 M390.5,54.4l-6.9-21.8l-6.7,21.8H390.5L390.5,54.4z M460.3,55.2c0,8.6-1.5,14.8-4.5,18.8c-3.5,4.4-9.3,6.5-17.6,6.5
		c-14.2,0-21.3-7.9-21.3-23.5c0-0.3,0-0.8,0-1.3c0.1-0.6,0.1-1,0.1-1.3h14.9c0,4.7,0.1,7.6,0.3,8.6c0.8,3.1,2.9,4.5,6,4.5
		c2.9,0,4.8-1.4,5.7-4.1c0.4-1.3,0.7-3.9,0.7-7.9V16h15.7V55.2L460.3,55.2z"/>
	<path class="st1" d="M276.6,100c0-1.9-0.3-3.4-1-4.5c-0.9-1.4-2.2-2.1-3.9-2.1s-3.1,0.7-3.9,2.1c-0.7,1.1-1,2.6-1,4.5
		c0,1.9,0.3,3.4,1,4.5c0.9,1.3,2.2,2,3.9,2s3.1-0.7,3.9-2C276.3,103.4,276.6,101.9,276.6,100L276.6,100z M282,100
		c0,3.3-0.9,5.9-2.7,7.9c-1.8,2-4.5,3.1-7.7,3.1c-3.2,0-5.8-1-7.6-3.1c-1.8-2-2.7-4.6-2.7-7.9c0-3.2,0.9-5.9,2.7-7.9
		c1.8-2,4.4-3,7.6-3s5.8,1,7.7,3.1C281.2,94.1,282,96.7,282,100L282,100z M259,110.4h-16V89.6h15.6v4.2h-10.4v3.7h9.5v4.2h-9.5v4.5
		H259V110.4L259,110.4z M234.4,100c0-1.9-0.3-3.4-1-4.5c-0.9-1.4-2.2-2.1-3.9-2.1s-3.1,0.7-3.9,2.1c-0.7,1.1-1,2.6-1,4.5
		c0,1.9,0.3,3.4,1,4.5c0.9,1.3,2.2,2,3.9,2s3.1-0.7,3.9-2C234,103.4,234.4,101.9,234.4,100L234.4,100z M239.8,100
		c0,3.3-0.9,5.9-2.7,7.9c-1.8,2-4.5,3.1-7.7,3.1s-5.8-1-7.6-3.1c-1.8-2-2.7-4.6-2.7-7.9c0-3.2,0.9-5.9,2.7-7.9c1.8-2,4.4-3,7.6-3
		s5.8,1,7.7,3.1C238.9,94.1,239.8,96.7,239.8,100L239.8,100z M215.8,110.4H211v-9.3c0-1.3,0.1-3.6,0.2-6.8l-4,16h-5.2l-3.9-16
		c0.2,3.8,0.2,6.5,0.2,8.2v7.8h-4.8V89.6h7.2c0.7,2.5,1.4,5,2.1,7.5c0.8,3,1.4,5.5,1.8,7.6c0.4-2.1,1-4.6,1.8-7.6
		c0.7-2.5,1.4-5.1,2.1-7.5h7.2L215.8,110.4L215.8,110.4z M184.9,100c0-1.9-0.3-3.4-1-4.5c-0.9-1.4-2.2-2.1-3.9-2.1s-3.1,0.7-3.9,2.1
		c-0.7,1.1-1,2.6-1,4.5c0,1.9,0.3,3.4,1,4.5c0.9,1.3,2.2,2,3.9,2s3.1-0.7,3.9-2C184.5,103.4,184.9,101.9,184.9,100L184.9,100z
		 M190.3,100c0,3.3-0.9,5.9-2.7,7.9c-1.8,2-4.5,3.1-7.7,3.1s-5.8-1-7.6-3.1c-1.8-2-2.7-4.6-2.7-7.9c0-3.2,0.9-5.9,2.7-7.9
		c1.8-2,4.4-3,7.6-3s5.8,1,7.7,3.1C189.3,94.1,190.3,96.7,190.3,100L190.3,100z M166.3,110.4H161v-8.7h-7.2v8.7h-5.3V89.6h5.3v7.3
		h7.2v-7.3h5.3V110.4L166.3,110.4z M459.6,89.6l-7.2,12.9v7.8h-5.2v-7.8L440,89.6h5.9l3.8,8.4l3.8-8.4H459.6L459.6,89.6z
		 M439.3,96.5h-5c-0.5-2-1.8-3-4.1-3c-1.7,0-2.9,0.7-3.8,2.2c-0.7,1.1-1,2.6-1,4.5c0,1.7,0.3,3.2,1,4.4c0.8,1.4,2,2.1,3.7,2.1
		c2.4,0,3.8-1.1,4.2-3.4h4.9c-0.3,2.5-1.3,4.5-2.9,5.8c-1.6,1.4-3.7,2.1-6.2,2.1c-3.1,0-5.6-1-7.4-3.1c-1.7-2-2.6-4.5-2.6-7.7
		c0-3.3,0.9-5.9,2.7-7.9c1.9-2.1,4.5-3.1,7.7-3.1c2.4,0,4.5,0.6,6,1.9C438.2,92.3,439.2,94.1,439.3,96.5L439.3,96.5z M410.9,102.3
		l-2.3-7.2l-2.2,7.2H410.9L410.9,102.3z M419,110.4h-5.7l-1.3-3.8h-6.9l-1.1,3.8h-5.5l7.4-20.8h5.8L419,110.4L419,110.4z
		 M396.4,110.4h-4.8v-9.3c0-1.3,0.1-3.6,0.2-6.8l-4,16h-5.2l-3.9-16c0.2,3.8,0.2,6.5,0.2,8.2v7.8H374V89.6h7.2
		c0.7,2.5,1.4,5,2.1,7.5c0.8,3,1.4,5.5,1.8,7.6c0.4-2.1,1-4.6,1.8-7.6c0.7-2.5,1.4-5.1,2.1-7.5h7.2L396.4,110.4L396.4,110.4z
		 M365.2,96c0-1.5-1-2.3-3-2.3h-4.1v4.7h3.9C364.3,98.5,365.2,97.6,365.2,96L365.2,96z M370.7,110.4h-5.6c-0.2-0.6-0.3-1.7-0.4-3.2
		c0-1.5-0.2-2.5-0.4-3.1c-0.4-1-1.3-1.4-2.5-1.4h-3.6v7.8h-5.2V89.6h9.9c2.4,0,4.1,0.3,5.3,1.1c1.6,1,2.3,2.4,2.3,4.6
		c0,2.3-1,4-3.2,5.1c1.1,0.4,1.8,1.1,2.3,2.3c0.3,0.7,0.4,1.7,0.4,3.1l0,0c0,1.3,0,2.1,0.1,2.4c0.1,0.8,0.3,1.2,0.8,1.5V110.4
		L370.7,110.4z M342.9,102.3l-2.3-7.2l-2.2,7.2H342.9L342.9,102.3z M351,110.4h-5.7l-1.3-3.8h-6.9l-1.1,3.8h-5.5l7.4-20.8h5.8
		L351,110.4L351,110.4z M328.4,110.4h-5.3v-8.7h-7.2v8.7h-5.3V89.6h5.3v7.3h7.2v-7.3h5.3V110.4L328.4,110.4z M302.4,96.2
		c0-1.7-1-2.4-2.8-2.4h-3.5v5h3.5C301.5,98.8,302.4,97.9,302.4,96.2L302.4,96.2z M307.6,96.1c0,2.3-0.6,4-1.7,5.1
		c-1,0.9-2.4,1.4-4.4,1.7c-0.8,0.1-2.5,0.2-5.4,0.2v7.4h-5.3V89.6h9.4c2.3,0,4,0.5,5.3,1.5C306.9,92.2,307.6,93.9,307.6,96.1z"/>
	<path class="st1" d="M151.9,146.4l1.9-10c0.5-2.6,0.8-4.5,1-6.4h0.1c0.4,1.8,0.9,3.1,1.8,5.6l4.4,10.9h2.4l3.7-19.3h-2.3l-1.9,10.2
		c-0.5,2.7-0.7,4.3-0.8,6l-0.1,0.1c-0.4-1.7-0.9-3.2-1.7-5.4l-4.5-10.9h-2.6l-3.7,19.3L151.9,146.4L151.9,146.4z M179,146.4
		c-0.1-1.6,0.2-4,0.6-6.4l1.4-7.2c-1-0.3-2.4-0.5-3.8-0.5c-6,0-9.6,5.1-9.6,9.9c0,2.6,1.6,4.5,4,4.5c2,0,3.8-1,5.4-3.9h0.1
		c-0.2,1.4-0.3,2.7-0.3,3.6L179,146.4L179,146.4z M177.5,138.6c-0.7,3.7-3.1,6.3-5,6.3c-1.8,0-2.4-1.5-2.4-3.1c0-3.8,3-7.6,6.5-7.6
		c0.8,0,1.3,0.1,1.7,0.2L177.5,138.6L177.5,138.6z M186.2,130.1l-0.5,2.5h-2l-0.3,1.8h2l-1.4,7c-0.2,1-0.3,1.8-0.3,2.6
		c0,1.4,0.8,2.7,2.9,2.7c0.7,0,1.4-0.1,1.8-0.3l0.1-1.9c-0.3,0.1-0.7,0.1-1.1,0.1c-0.9,0-1.3-0.5-1.3-1.3c0-0.7,0.1-1.4,0.3-2.2
		l1.3-6.7h3.3l0.3-1.8h-3.3l0.6-3.3L186.2,130.1L186.2,130.1z M202.7,132.6l-1.3,7.1c-0.6,3.1-2.8,5.1-4.5,5.1s-2.3-1-2.3-2.4
		c0-0.6,0.1-1.2,0.3-2l1.5-7.8H194l-1.5,7.9c-0.2,0.9-0.3,1.7-0.3,2.4c0,3.1,1.8,4,3.7,4c1.8,0,3.7-1.1,4.9-2.9h0.1l-0.3,2.6h2.2
		c0.2-1.1,0.3-2.5,0.6-4l1.8-9.8L202.7,132.6L202.7,132.6z M209,146.4l1.1-6.1c0.6-3.2,2.4-5.8,4.5-5.8c0.3,0,0.5,0,0.6,0.1l0.4-2.4
		c-0.2,0-0.4-0.1-0.7-0.1c-1.8,0-3.3,1.4-4.2,3.3h-0.1c0.2-1,0.3-2,0.3-3h-2.1c-0.2,1.3-0.3,3.1-0.7,4.9l-1.7,8.9L209,146.4
		L209,146.4z M225.1,143.9l0.3,1.7c-1,0.6-2.7,1.1-4.5,1.1c-3.7,0-5.2-2.5-5.2-5.6c0-4.2,3.1-8.9,7.5-8.9c2.6,0,4.1,1.6,4.1,3.6
		c0,3.7-4.1,4.6-9.2,4.5c-0.1,0.6,0,1.9,0.3,2.6c0.5,1.2,1.7,1.8,3.1,1.8C223,144.9,224.2,144.3,225.1,143.9L225.1,143.9z
		 M224.9,136L224.9,136c0-1.1-0.9-1.7-2.1-1.7c-2.3,0-3.9,2.2-4.5,4.4C222.1,138.6,224.9,138.1,224.9,136L224.9,136z M237.3,130.1
		l-0.5,2.5h-2l-0.3,1.8h2l-1.4,7c-0.2,1-0.3,1.8-0.3,2.6c0,1.4,0.8,2.7,2.9,2.7c0.7,0,1.4-0.1,1.8-0.3l0.1-1.9
		c-0.3,0.1-0.7,0.1-1.1,0.1c-0.9,0-1.3-0.5-1.3-1.3c0-0.7,0.1-1.4,0.3-2.2l1.3-6.7h3.3l0.3-1.8H239l0.6-3.3L237.3,130.1L237.3,130.1
		z M250.3,132.3c-4.5,0-7.7,4.3-7.7,8.8c0,3.1,1.9,5.7,5.4,5.7c4.6,0,7.7-4.5,7.7-8.7C255.8,135.2,254.1,132.3,250.3,132.3
		L250.3,132.3z M250.1,134.2c2.4,0,3.2,2.3,3.2,3.8c0,3.2-2.1,6.8-4.9,6.8c-2,0-3.2-1.7-3.2-3.9
		C245.1,137.8,247.1,134.2,250.1,134.2L250.1,134.2z M262.1,145.5c0.8,0.7,2.7,1.3,4.6,1.3c4.3,0,7-2.6,7-6c0-2.4-1.3-3.9-3.7-5.2
		c-2-1.1-3-2-3-3.6c0-1.6,1.4-3.1,3.8-3.1c1.6,0,2.7,0.5,3.3,0.9l0.9-1.9c-0.7-0.4-2.1-1-3.9-1c-3.6,0-6.5,2.3-6.5,5.7
		c0,2.1,1.4,3.7,3.8,5c2,1.1,2.8,2.2,2.8,3.6c0,2.4-2,3.7-4.2,3.7c-1.6,0-3.1-0.5-4.1-1.2L262.1,145.5L262.1,145.5z M287.5,146.4
		c-0.1-1.6,0.2-4,0.6-6.4l1.4-7.2c-1-0.3-2.4-0.5-3.8-0.5c-6,0-9.6,5.1-9.6,9.9c0,2.6,1.6,4.5,4,4.5c2,0,3.8-1,5.4-3.9h0.1
		c-0.2,1.4-0.3,2.7-0.3,3.6L287.5,146.4L287.5,146.4z M286.1,138.6c-0.7,3.7-3.1,6.3-5,6.3c-1.8,0-2.4-1.5-2.4-3.1
		c0-3.8,3-7.6,6.5-7.6c0.8,0,1.3,0.1,1.7,0.2L286.1,138.6L286.1,138.6z M293.9,146.4l2.3-12h3.1l0.3-1.9h-3.1l0.1-0.7
		c0.4-2.3,1.3-4.1,3.2-4.1c0.5,0,1,0.1,1.4,0.3l0.5-1.9c-0.3-0.2-1-0.3-1.9-0.3c-1.2,0-2.4,0.4-3.3,1.2c-1.2,1.1-1.9,2.9-2.3,4.8
		l-0.2,0.7h-1.8l-0.3,1.9h1.8l-2.3,12L293.9,146.4L293.9,146.4z M308.9,143.9l0.3,1.7c-1,0.6-2.7,1.1-4.5,1.1
		c-3.7,0-5.2-2.5-5.2-5.6c0-4.2,3.1-8.9,7.5-8.9c2.6,0,4.1,1.6,4.1,3.6c0,3.7-4.1,4.6-9.2,4.5c-0.1,0.6,0,1.9,0.3,2.6
		c0.5,1.2,1.7,1.8,3.1,1.8C306.9,144.9,308.1,144.3,308.9,143.9L308.9,143.9z M308.7,136L308.7,136c0-1.1-0.9-1.7-2.1-1.7
		c-2.3,0-3.9,2.2-4.5,4.4C305.9,138.6,308.7,138.1,308.7,136L308.7,136z M331.9,146.4c-1-1.1-1.7-2.2-2.4-3.2c1.7-1.8,3-4.3,4-7.3
		h-2.3c-0.9,2.4-1.7,4.3-2.9,5.8c-1-1.4-2.4-3.6-3.5-5.3v-0.1c3.3-1.6,5-3.3,5-5.6c0-2.1-1.3-3.8-3.9-3.8c-3,0-5.2,2.4-5.1,5.2
		c0,1.1,0.3,2.3,1,3.5v0.1c-2.4,1.1-4.8,3.2-4.8,6.2c0,2.7,1.9,4.8,5.2,4.8c2.1,0,3.8-0.6,5.4-2.1c0.4,0.7,0.8,1.2,1.3,1.7h2.9
		V146.4z M323,145c-2.2,0-3.4-1.5-3.4-3.3c0-2.4,2-3.8,3.2-4.5c1.4,2.4,3.1,4.7,4,6.1C325.9,144.3,324.5,145,323,145L323,145
		L323,145z M325.8,128.5c1.4,0,1.9,1,1.9,2.2c0,1.8-1.3,3.1-3.7,4.2c-0.6-1-0.9-2-0.9-3.1C323.1,129.9,324.3,128.5,325.8,128.5
		L325.8,128.5L325.8,128.5z M339,145.5c0.8,0.7,2.7,1.3,4.6,1.3c4.3,0,7-2.6,7-6c0-2.4-1.3-3.9-3.7-5.2c-2-1.1-3-2-3-3.6
		c0-1.6,1.4-3.1,3.8-3.1c1.6,0,2.7,0.5,3.3,0.9l0.9-1.9c-0.7-0.4-2.1-1-3.9-1c-3.6,0-6.5,2.3-6.5,5.7c0,2.1,1.4,3.7,3.8,5
		c2,1.1,2.8,2.2,2.8,3.6c0,2.4-2,3.7-4.2,3.7c-1.6,0-3.1-0.5-4.1-1.2L339,145.5L339,145.5z M364,132.6l-1.3,7.1
		c-0.6,3.1-2.8,5.1-4.5,5.1c-1.7,0-2.3-1-2.3-2.4c0-0.6,0.1-1.2,0.3-2l1.5-7.8h-2.4l-1.5,7.9c-0.2,0.9-0.3,1.7-0.3,2.4
		c0,3.1,1.8,4,3.7,4s3.7-1.1,4.9-2.9h0.1l-0.3,2.6h2.2c0.2-1.1,0.3-2.5,0.6-4l1.8-9.8L364,132.6L364,132.6z M370.3,146.4l1.1-6.1
		c0.6-3.2,2.4-5.8,4.5-5.8c0.3,0,0.5,0,0.6,0.1l0.4-2.4c-0.2,0-0.4-0.1-0.7-0.1c-1.8,0-3.3,1.4-4.2,3.3h-0.1c0.2-1,0.3-2,0.3-3h-2.1
		c-0.2,1.3-0.3,3.1-0.7,4.9l-1.7,8.9L370.3,146.4L370.3,146.4z M386.4,143.9l0.3,1.7c-1,0.6-2.7,1.1-4.5,1.1c-3.7,0-5.2-2.5-5.2-5.6
		c0-4.2,3.1-8.9,7.5-8.9c2.6,0,4.1,1.6,4.1,3.6c0,3.7-4.1,4.6-9.2,4.5c-0.1,0.6,0,1.9,0.3,2.6c0.5,1.2,1.7,1.8,3.1,1.8
		C384.3,144.9,385.6,144.3,386.4,143.9L386.4,143.9z M386.3,136L386.3,136c0-1.1-0.9-1.7-2.1-1.7c-2.3,0-3.9,2.2-4.5,4.4
		C383.4,138.6,386.3,138.1,386.3,136L386.3,136z M408.1,143.9c-1,0.5-2.6,0.9-4.1,0.9c-4.3,0-5.8-2.8-5.8-6.3c0-2.9,1.1-5.7,3-7.3
		c1.5-1.4,3.5-2.2,5.5-2.2c1.7,0,3.1,0.3,3.8,0.8l0.8-1.9c-0.5-0.4-2-1-4.2-1c-2.8,0-5.3,0.9-7.2,2.6c-2.6,2.2-4.1,5.7-4.1,9.3
		c0,4.9,3,8,7.8,8c2.2,0,3.9-0.4,5-1L408.1,143.9L408.1,143.9z M421.8,132.6l-1.3,7.1c-0.6,3.1-2.8,5.1-4.5,5.1
		c-1.7,0-2.3-1-2.3-2.4c0-0.6,0.1-1.2,0.3-2l1.5-7.8h-2.4l-1.5,7.9c-0.2,0.9-0.3,1.7-0.3,2.4c0,3.1,1.8,4,3.7,4
		c1.8,0,3.7-1.1,4.9-2.9h0.1l-0.3,2.6h2.2c0.2-1.1,0.3-2.5,0.6-4l1.8-9.8L421.8,132.6L421.8,132.6z M428.1,146.4l1.1-6.1
		c0.6-3.2,2.4-5.8,4.5-5.8c0.3,0,0.5,0,0.6,0.1l0.4-2.4c-0.2,0-0.4-0.1-0.7-0.1c-1.8,0-3.3,1.4-4.2,3.3h-0.1c0.2-1,0.3-2,0.3-3H428
		c-0.2,1.3-0.3,3.1-0.7,4.9l-1.7,8.9L428.1,146.4L428.1,146.4z M444.2,143.9l0.3,1.7c-1,0.6-2.7,1.1-4.5,1.1c-3.7,0-5.2-2.5-5.2-5.6
		c0-4.2,3.1-8.9,7.5-8.9c2.6,0,4.1,1.6,4.1,3.6c0,3.7-4.1,4.6-9.2,4.5c-0.1,0.6,0,1.9,0.3,2.6c0.5,1.2,1.7,1.8,3.1,1.8
		C442.1,144.9,443.4,144.3,444.2,143.9L444.2,143.9z M444.1,136L444.1,136c0-1.1-0.9-1.7-2.1-1.7c-2.3,0-3.9,2.2-4.5,4.4
		C441.2,138.6,444.1,138.1,444.1,136z"/>
	<rect x="147" y="117.5" class="st1" width="310.4" height="1.7"/>
</g>
</svg>
